<svg xmlns="http://www.w3.org/2000/svg" viewBox="0 0 256 256" fill="none">
  <rect width="256" height="256" rx="48" fill="#0F172A"/>
  <path d="M64 70h54c39 0 58 20 58 50 0 31-22 52-57 52H92v52H64V70Zm28 80h26c19 0 29-10 29-28 0-17-10-26-29-26H92v54Z" fill="#F8FAFC"/>
  <path d="M154 140c19 4 30 16 38 42l13 44h-30l-12-39c-5-16-12-22-29-22h-12v-25h11c18 0 29-8 29-23 0-15-10-23-29-23h-11V70h13c36 0 55 16 55 45 0 18-10 32-36 25Z" fill="#14B8A6"/>
  <circle cx="194" cy="64" r="18" fill="#F59E0B"/>
</svg>
